<svg width="38" height="38" viewBox="0 0 38 38" fill="none" xmlns="http://www.w3.org/2000/svg">
<mask id="mask0_486_16" style="mask-type:alpha" maskUnits="userSpaceOnUse" x="0" y="0" width="38" height="38">
<rect width="38" height="38" fill="#D9D9D9"/>
</mask>
<g mask="url(#mask0_486_16)">
<path d="M9.5 27.5C10.3284 27.5 11 26.8284 11 26C11 25.1716 10.3284 24.5 9.5 24.5C8.67157 24.5 8 25.1716 8 26C8 26.8284 8.67157 27.5 9.5 27.5Z" fill="#3228D9"/>
<path d="M7.5 21.5C8.32843 21.5 9 20.8284 9 20C9 19.1716 8.32843 18.5 7.5 18.5C6.67157 18.5 6 19.1716 6 20C6 20.8284 6.67157 21.5 7.5 21.5Z" fill="#3228D9"/>
<path d="M17.5 9.5C18.3284 9.5 19 8.82843 19 8C19 7.17157 18.3284 6.5 17.5 6.5C16.6716 6.5 16 7.17157 16 8C16 8.82843 16.6716 9.5 17.5 9.5Z" fill="#3228D9"/>
<path d="M8.5 11.5C9.32843 11.5 10 10.8284 10 10C10 9.17157 9.32843 8.5 8.5 8.5C7.67157 8.5 7 9.17157 7 10C7 10.8284 7.67157 11.5 8.5 11.5Z" fill="#3228D9"/>
<path d="M33.5 12.5C34.3284 12.5 35 11.8284 35 11C35 10.1716 34.3284 9.5 33.5 9.5C32.6716 9.5 32 10.1716 32 11C32 11.8284 32.6716 12.5 33.5 12.5Z" fill="#3228D9"/>
<path d="M21.5 27.5C22.8807 27.5 24 26.3807 24 25C24 23.6193 22.8807 22.5 21.5 22.5C20.1193 22.5 19 23.6193 19 25C19 26.3807 20.1193 27.5 21.5 27.5Z" fill="#3228D9"/>
<path d="M26.5 23.5C27.8807 23.5 29 22.3807 29 21C29 19.6193 27.8807 18.5 26.5 18.5C25.1193 18.5 24 19.6193 24 21C24 22.3807 25.1193 23.5 26.5 23.5Z" fill="#3228D9"/>
<path d="M2.5 34.5H27V32H2.5V3H0V32C0.000661846 32.6628 0.264267 33.2983 0.732964 33.767C1.20166 34.2357 1.83716 34.4993 2.5 34.5Z" fill="#3228D9"/>
<circle cx="24" cy="23" r="11.75" stroke="white" stroke-width="2.5"/>
<circle cx="24.0263" cy="23.0263" r="9.27632" stroke="#3228D9" stroke-width="2.5"/>
<line x1="30.1749" y1="30.037" x2="36.7538" y2="36.616" stroke="#3228D9" stroke-width="2.5"/>
</g>
</svg>
