<svg width="38" height="38" viewBox="0 0 38 38" fill="none" xmlns="http://www.w3.org/2000/svg">
<mask id="mask0_486_43" style="mask-type:alpha" maskUnits="userSpaceOnUse" x="0" y="0" width="38" height="38">
<rect width="38" height="38" fill="#D9D9D9"/>
</mask>
<g mask="url(#mask0_486_43)">
<path d="M2.31884 17.3768H17.4783V15.058H2.31884V3H0V15.058C0.000613886 15.6728 0.245117 16.2622 0.679851 16.697C1.11458 17.1317 1.70403 17.3762 2.31884 17.3768Z" fill="#3228D9"/>
<path d="M22.5063 34.9999H37.6658V32.681H22.5063V20.623H20.1875V32.681C20.1881 33.2958 20.4326 33.8853 20.8674 34.32C21.3021 34.7547 21.8915 34.9992 22.5063 34.9999Z" fill="#3228D9"/>
<path d="M2.31884 34.9999H17.4783V32.681H2.31884V20.623H0V32.681C0.000613886 33.2958 0.245117 33.8853 0.679851 34.32C1.11458 34.7547 1.70403 34.9992 2.31884 34.9999Z" fill="#3228D9"/>
<path d="M22.5063 17.3768H37.6658V15.058H22.5063V3H20.1875V15.058C20.1881 15.6728 20.4326 16.2622 20.8674 16.697C21.3021 17.1317 21.8915 17.3762 22.5063 17.3768Z" fill="#3228D9"/>
<rect x="3.71094" y="9.0293" width="2.31884" height="4.63768" fill="#3228D9"/>
<rect x="11.1309" y="7.17383" width="2.31884" height="6.49275" fill="#3228D9"/>
<rect x="14.8398" y="10.8838" width="2.31884" height="2.78261" fill="#3228D9"/>
<rect x="7.41992" y="5.31836" width="2.31884" height="8.34783" fill="#3228D9"/>
<path d="M36.4207 10.8836L32.7105 7.17343L29.0004 5.31836L25.2902 9.0285L21.5801 10.8836" stroke="#3228D9" stroke-width="1.5" stroke-linecap="round" stroke-linejoin="round"/>
<path d="M5.92466 27.1164L1.85547 29.4352V33.6091H17.6236V28.9715L13.5544 25.2613L9.99385 23.4062L5.92466 27.1164Z" fill="#3228D9"/>
<circle cx="25.0579" cy="27.3479" r="1.15942" fill="#3228D9"/>
<circle cx="28.7688" cy="23.6379" r="1.15942" fill="#3228D9"/>
<circle cx="32.4778" cy="25.4924" r="1.15942" fill="#3228D9"/>
<circle cx="36.1887" cy="29.2034" r="1.15942" fill="#3228D9"/>
</g>
</svg>
