<svg width="38" height="38" viewBox="0 0 38 38" fill="none" xmlns="http://www.w3.org/2000/svg">
<mask id="mask0_486_2" style="mask-type:alpha" maskUnits="userSpaceOnUse" x="0" y="0" width="38" height="38">
<rect width="38" height="38" fill="#D9D9D9"/>
</mask>
<g mask="url(#mask0_486_2)">
<rect x="28.2578" y="3.76777" width="8.44034" height="33.6031" rx="1.25" transform="rotate(45 28.2578 3.76777)" stroke="#3228D9" stroke-width="2.5" stroke-linejoin="round"/>
<rect x="27.0977" y="9.34961" width="6.5642" height="2.18807" transform="rotate(45 27.0977 9.34961)" fill="#3228D9"/>
<rect x="23.2305" y="13.2168" width="6.5642" height="2.18807" transform="rotate(45 23.2305 13.2168)" fill="#3228D9"/>
<rect x="19.3633" y="17.085" width="6.5642" height="2.18807" transform="rotate(45 19.3633 17.085)" fill="#3228D9"/>
<rect x="15.4941" y="20.9531" width="6.5642" height="2.18807" transform="rotate(45 15.4941 20.9531)" fill="#3228D9"/>
<rect x="11.625" y="24.8213" width="6.5642" height="2.18807" transform="rotate(45 11.625 24.8213)" fill="#3228D9"/>
<path d="M4.65165 8.85244L8.8521 4.65199C9.34026 4.16384 10.1317 4.16384 10.6199 4.65199L32.1344 26.1665C32.3186 26.3508 32.4407 26.5879 32.4835 26.8449L33.3236 31.8855C33.4646 32.7315 32.7312 33.465 31.8851 33.324L26.8446 32.4839C26.5876 32.441 26.3504 32.319 26.1662 32.1348L4.65165 10.6202C4.1635 10.1321 4.1635 9.3406 4.65165 8.85244Z" fill="white" stroke="#3228D9" stroke-width="2.5" stroke-linejoin="round"/>
<rect x="4.99805" y="9.63965" width="6.5642" height="6.70047" transform="rotate(-45 4.99805 9.63965)" fill="#3228D9"/>
<path d="M24.9746 29.6162L29.6162 24.9746L31.5388 26.6162L26.8972 31.2578L24.9746 29.6162Z" fill="#3228D9"/>
</g>
</svg>
